<svg xmlns="http://www.w3.org/2000/svg" viewBox="0 0 939.21 145.17" width="201" height="31"><path d="M116.37,145.17,100.11,99.69c2.92-7.1,2.36-11.22-1.77-14S90,84,85.1,89.12H66.8c-1.44-2.62-2.89-5.25-5.59-6.3V.07H117l17.81,43.12c-5.74,7.57-6.13,12.34-1.42,16a8.76,8.76,0,0,0,12.1-1.47c3.46-4.28,2.46-8.92-3.41-14.11L160.08,0h55.87V145H182.63v-43c4.65-1.77,8.43-4.68,7.52-10.49a8.05,8.05,0,0,0-7.27-7.18c-4.3-.59-7.59,1.13-9.32,5.1-2.17,5,.15,8.65,4.55,11.9L163,145.17Z" fill="#0f76bd"></path><path d="M65.54,96.18H84.68c2.55,2.7,4.92,6.21,9.62,5.43L108,145.15H0V.09H53.86v82.5c-5.31,5.35-6.21,10-2.61,14.15S59.42,100.59,65.54,96.18Z" fill="#252122"></path><path d="M435.91,142.55V35.61h28.2L491.63,115l27.74-79.43h28v107H526.48c-1.39-25.15,1-50.29,0-75.61L499,142.6H484.36L456.18,64.8c.4,26,2,51.7,1.08,77.75Z" fill="#252122"></path><path d="M383.55,142.64H362.14c-1.92-3-2.37-6.58-3.24-10-1.75-.32-1.92,1.19-2.54,2-5.7,7.22-13.05,10.44-22.27,9.8-13.06-.91-21.36-8.06-22.95-20.05-1.71-12.91,4.2-22.09,17-26.25a55.08,55.08,0,0,1,16.71-2.49c4.31,0,8.62,0,12.87,0,2.07-9.61-.62-16.22-7.13-17.92-7.82-2-12.85.78-15.6,8.88H314.67C314,80.92,316,76.4,319.47,72.4c11.89-13.78,40.11-15,53.2-2.34,5.53,5.34,7.37,12.1,7.43,19.49q.11,14,0,28C380,125.86,380.29,134.15,383.55,142.64Zm-25.76-34.84c-3.84,0-7.79-.05-11.73,0a21.82,21.82,0,0,0-4.42.59c-6.22,1.43-10.16,7-9.12,12.82,1,5.3,6.24,8.48,12.9,6.87C356.28,125.47,360.26,121.22,357.79,107.79Z" fill="#252122"></path><path d="M939.21,142.64H917.9c-2.07-3.23-2.35-7-3.69-11.13-7.35,11.49-17.48,14.84-29.95,12-9.85-2.23-16-9-17.51-19.32s2.62-18.83,11.25-23.63c6.58-3.66,13.81-4.7,21.17-4.94,4.8-.16,9.61,0,14.34,0,2-10.13-.93-16.64-7.82-18.06-7.9-1.63-12.74,1.25-14.68,8.92H870.48c-.72-6.23,1.75-11.07,5.84-15.23,12.11-12.34,38-13.38,51.08-2.09a22.56,22.56,0,0,1,8.12,16.55c.3,6.81.19,13.64.23,20.47,0,6.16-.08,12.32.08,18.47A58.71,58.71,0,0,0,939.21,142.64Zm-25.5-34.8c-5.54.06-10.84-.6-16.08.51-6.54,1.39-10.41,7-9.24,13.14,1,5.18,6.45,8.25,13.07,6.55C911.56,125.46,916,121.64,913.71,107.84Z" fill="#252122"></path><path d="M633.57,109.4H586.24c.18,11.3,6.94,18.12,17.72,18.25a34.1,34.1,0,0,0,11.36-1.3c3.59-1.21,7.06-2.76,10.87-4.28L632,135.31c-14.48,9.26-29.74,12.22-45.74,6.26-14.63-5.45-21.33-17.43-22.62-32.48-.85-9.87,0-19.63,4.62-28.71,7.82-15.29,22.86-21.91,40.9-18,14.49,3.17,23.72,15.17,24.36,31.85C633.72,99.08,633.57,103.91,633.57,109.4Zm-47.1-14.63h25.6c1.14-9.78-3.22-16.11-11.28-16.58C592.25,77.69,586.4,84.35,586.47,94.78Z" fill="#252122"></path><path d="M858.47,92.36h-19c-1.31-.76-.84-2.08-1-3.16-1.24-6.37-5-10.3-10.63-10.93-7.18-.82-12.25,1.83-14.73,8.37-3.85,10.15-3.76,20.57-.67,30.86,2.31,7.68,7.14,10.67,15.07,10.11,6.46-.46,9.87-3.92,11.48-11.88h19.16c1.22,12.63-8.42,24.34-22.56,27.64-24.14,5.64-43.5-7.91-46.37-32.47-1.24-10.6-.6-21,4.28-30.68C803.17,61,831.1,54.9,848,68.32,855.63,74.34,858.86,82.33,858.47,92.36Z" fill="#252122"></path><path d="M256.55,35.65v90.5H304.2V142.6H235.33V35.65Z" fill="#252122"></path><path d="M650.3,78H638.86V63h11.28V43.63h21.6V62.19c4.45,1.47,8.84,0,13.32,1V77.67c-4.06,1.1-8.43-.08-12.88.7,0,14.45-.26,28.72.14,43,.15,5.34,3.67,6.64,12.43,5.58l1.83,14.59c-17.48,9.39-35.62-.62-36.15-20-.35-12.65-.1-25.32-.12-38C650.29,81.94,650.3,80.31,650.3,78Z" fill="#252122"></path><path d="M720.14,73.82c5.57-9.43,12.34-14.39,23.25-11.51l-2.23,19c-3.15,0-6.11-.09-9.05,0-7.51.29-11.55,4.5-11.55,11.95,0,16.32,0,32.63,0,49.22H699.32V63.09H719Z" fill="#252122"></path><path d="M774.51,142.64H753.43V63h21.08Z" fill="#252122"></path><path d="M624.16,31.86c0,.52.07,1-.09,1.11-6.49,6.16-13,12.29-19.37,18.29H587.3l14.52-19.4Z" fill="#252122"></path><path d="M753.52,27.74h20.91V43.42H753.52Z" fill="#252122"></path><path d="M357.79,107.79c2.47,13.42-1.52,17.68-12.37,20.31-6.65,1.61-11.94-1.57-12.9-6.87-1-5.8,2.9-11.39,9.12-12.82a21.82,21.82,0,0,1,4.42-.59C350,107.74,354,107.79,357.79,107.79Z" fill="#fcfcfc"></path><path d="M913.71,107.84c2.29,13.79-2.15,17.62-12.25,20.2-6.63,1.7-12.09-1.37-13.07-6.55-1.17-6.16,2.7-11.75,9.24-13.14C902.87,107.24,908.17,107.91,913.71,107.84Z" fill="#fcfcfc"></path><path d="M586.47,94.78c-.06-10.43,5.78-17.08,14.32-16.58,8.06.47,12.42,6.8,11.28,16.58Z" fill="#fcfcfc"></path></svg>