<svg xmlns="http://www.w3.org/2000/svg" viewBox="0 0 322.01 46.72" width="199" height="28"><path d="M1.9,44.6h22.3v1.78H0V.31H1.9Z" fill="#1e1b19"></path><path d="M106.59.31,89.49,46.69H88.08L71,.31h2.26l15.55,43,15.55-43Z" fill="#1e1b19"></path><path d="M136.15,23.35H113.76V44.6h24.77v1.78H111.7V.31h26.84V2.09H113.76V21.63h22.39Z" fill="#1e1b19"></path><path d="M172.34,1.78v1.9a32.21,32.21,0,0,0-11.87-1.9c-11,0-13.74,4.67-13.74,10.2,0,7.5,3.29,8.6,13.29,9.65,9.61,1,14.45,2.27,14.45,12,0,6.08-3.23,13-17.48,13a43.38,43.38,0,0,1-12.9-2.09V42.76a36.75,36.75,0,0,0,13,2.15c11.74,0,15.35-4.85,15.35-11.24,0-7.8-2.19-9.22-12.9-10.38-10.39-1.11-14.77-2.76-14.77-11.37,0-5.78,3-11.92,15.74-11.92A33,33,0,0,1,172.34,1.78Z" fill="#1e1b19"></path><path d="M193.11,46.39V.31h14c15.29,0,18.58,8.6,18.58,23s-3.29,23-18.58,23Zm2.06-1.78h11.61c13.42,0,16.77-7,16.77-21.26S220.21,2.09,206.79,2.09H195.18Z" fill="#1e1b19"></path><path d="M261.11,46.39l-4.84-13.33H235l-4.77,13.33h-2.39L245,0h1.42l17.1,46.39ZM235.63,31.33h20.06l-10-27.89Z" fill="#1e1b19"></path><path d="M276,2V46.39H274V2H259.89V.31h30.19V2Z" fill="#1e1b19"></path><path d="M319.63,46.39l-4.84-13.33H293.56l-4.77,13.33H286.4L303.5,0h1.42L322,46.39ZM294.15,31.33h20.06l-10-27.89Z" fill="#1e1b19"></path><path d="M43.17,46.72l-.36-.14A56.75,56.75,0,0,1,30,39.07C21.56,32.47,17.09,24.59,17.09,16.3c0-5.68,2-10.16,5.78-12.95A16.79,16.79,0,0,1,32.49.29h.06A14.79,14.79,0,0,1,43.17,4.47,14.79,14.79,0,0,1,53.79.29h.06a16.79,16.79,0,0,1,9.62,3.07c3.78,2.79,5.78,7.26,5.78,12.95,0,8.29-4.47,16.17-12.93,22.77a56.75,56.75,0,0,1-12.8,7.51l-.35.14ZM32.55,2.23H32.5C31.12,2.23,19,2.67,19,16.3c0,17.38,21.12,27,24.13,28.32,3-1.29,24.13-10.94,24.13-28.32C67.3,2.67,55.22,2.23,53.84,2.23h-.05A12.54,12.54,0,0,0,44,6.51l-.78,1.06-.78-1.06a12.43,12.43,0,0,0-9.83-4.28Z" fill="#ee7f03"></path></svg>