<svg xmlns="http://www.w3.org/2000/svg" viewBox="0 0 1150.56 192">
  <defs>
    <style>
    .text {
      fill: #757575;
      font-family: "Google Sans","Product Sans",Roboto,sans-serif;
      font-size: 400%;
      font-weight: 400;
      letter-spacing: 1px;
    }
    </style>
  </defs>
  <path fill="#AECBFA" d="M58.49,0A16.6,16.6,0,0,0,44.72,25.86l7.09-7.08a6.88,6.88,0,0,1-.35-2.19,7,7,0,1,1,7,7,6.87,6.87,0,0,1-2.18-.35l-7.08,7.08A16.59,16.59,0,1,0,58.49,0Z"/>
  <path fill="#5E97F6" d="M51.89,48.35a25.79,25.79,0,0,0-5.17-15.54L37.52,42A13.19,13.19,0,0,1,35,57.92l5,12.22A25.93,25.93,0,0,0,51.89,48.35Z"/>
  <path fill="#5E97F6" d="M26.18,61.54h-.24a13.2,13.2,0,1,1,7.25-24.23l9.11-9.11A25.94,25.94,0,1,0,25.94,74.29a26.53,26.53,0,0,0,5.24-.52Z"/>
  <path fill="#4285F4" d="M58.84,72.11a58.87,58.87,0,0,0-17,2.49l7.29,17.81a40.19,40.19,0,0,1,9.7-1.18,39.71,39.71,0,1,1-28.09,11.63,40.12,40.12,0,0,1,9.47-7L33,78.1a58.87,58.87,0,1,0,25.89-6Z"/>
  <text x="175" y="135" class="text">Looker Studio</text>
</svg>