<svg xmlns="http://www.w3.org/2000/svg" viewBox="0 0 448.91 112.6" width="171" height="43"><path d="M.56,100.7V11.81c.8-4.62,3.15-8.06,7.52-10,.88-.39,2-.23,2.61-1.24h427c5.83,1.26,9.38,4.8,10.53,10.64a25,25,0,0,1,.3,4.76q0,40.91,0,81.82c0,10-4.82,14.81-14.82,14.82H303.91a16,16,0,0,1,.48-1.57c5.21-11.92,9.47-24.21,14.17-36.32A27.42,27.42,0,0,0,320,69.89,3.2,3.2,0,0,0,317.55,66a3.11,3.11,0,0,0-4.05,1.59A36.44,36.44,0,0,0,311.69,72c-2.1,5.89-4.16,11.79-6.45,18.3C303.7,85.87,302.38,82,301,78.2c-1.14-3.27-2.22-6.56-3.47-9.78-.82-2.1-2.46-3.12-4.72-2.33a3.73,3.73,0,0,0-2.6,4.88,19.32,19.32,0,0,0,.82,2.38c3.34,8.42,6.68,16.84,10,25.2-2.3,4.78-3.66,9.77-6.45,14h-2q-138.76,0-277.52,0C6.32,112.59,2.7,109.58.56,100.7Zm125.73-11.6c-.45-1.45-.67-2.16-.88-2.87-1.77-5.91-3.52-11.82-5.32-17.72-.69-2.27-2.34-3.16-4.58-2.46a3.29,3.29,0,0,0-2.36,4.44c2.79,8.72,5.56,17.45,8.88,26a4.39,4.39,0,0,0,4.44,2.83,4.21,4.21,0,0,0,4.27-3c.42-1.14.87-2.27,1.21-3.43,1.47-5.11,2.91-10.24,4.36-15.38.82.46.81,1.25,1,2,1.63,5.46,3.26,10.92,4.94,16.36a4.48,4.48,0,0,0,4.26,3.48,4.3,4.3,0,0,0,4.68-2.86q4.57-13,8.89-26c.7-2.11-.45-3.73-2.47-4.39s-3.66.21-4.51,2.24a20.83,20.83,0,0,0-.66,2.14L147.2,88.31c-1-.59-.91-1.43-1.12-2.12-1.56-5.29-3.11-10.58-4.62-15.88-.73-2.56-2-4.47-5-4.45s-4.12,2.08-4.84,4.6C130,76.48,128.2,82.48,126.29,89.09Zm82.43,5.24c.59.52.87.76,1.13,1,6.73,6.58,17,4.82,21-3.73a21.53,21.53,0,0,0,.3-18A13.1,13.1,0,0,0,211.79,68c-1,.65-1.91,1.38-3.3,2.39,0-4.46.09-8.45,0-12.43-.09-2.88-1.7-4.51-4-4.45s-3.51,1.65-3.67,4.46c0,.56,0,1.12,0,1.68q0,17,0,34a13.88,13.88,0,0,0,.13,2.52,3.44,3.44,0,0,0,3.21,3,3.59,3.59,0,0,0,4-2.38A22.61,22.61,0,0,0,208.72,94.34Zm51.34.44,1.77,2.31c1.38,1.79,3,2.85,5.33,1.71s2.24-3,1.54-5.07a23.38,23.38,0,0,1-1-7.74c0-4,.32-8-.4-12A8.67,8.67,0,0,0,260,66.44a27.24,27.24,0,0,0-12.25,0c-3.25.78-6.22,2.13-7.88,5.31-1.31,2.52-1,4.73.86,5.68,2.31,1.18,3.9.23,5.08-1.86,2-3.51,5.2-4.34,8.89-3.93s5,2.23,4.43,6.26C254.82,79.33,250.3,80,245.84,81c-5.35,1.18-8.49,4.79-8.21,9.45.3,4.84,3.88,8.23,9.31,8.76C251.88,99.7,256.08,97.82,260.06,94.77ZM172,84.61c1.8,0,3.19,0,4.58,0,4.59-.05,9.18,0,13.76-.23,3.41-.2,4.42-1.53,4.35-4.89a14,14,0,0,0-.53-3.59c-2-7-8.63-10.88-16.79-10-7.74.83-13.08,6.24-13.7,14a36,36,0,0,0,0,5.05c.39,6.4,4,11.63,9.87,13.34,6.79,2,13.39,1.74,18.83-3.61,1.6-1.57,2.51-3.5,1.35-5.78-1.92-1.31-3.5-1-5.06.56a21.35,21.35,0,0,1-3.7,3,8.14,8.14,0,0,1-9,.25C173.16,91,172.17,88.21,172,84.61ZM413.17,65.83a20.8,20.8,0,0,0-4.74.47A12.74,12.74,0,0,0,404.28,68c-5.94,3.59-5.79,11.18.28,14.51C408.47,84.61,413,85,417,86.67c1.58.64,2.73,1.63,2.66,3.54s-1.41,2.73-3,3.29a7.47,7.47,0,0,1-1.9.41A8.48,8.48,0,0,1,406,89.14c-1-1.81-2.59-2.52-4.49-1.63s-2.35,2.69-1.67,4.75a8.15,8.15,0,0,0,4.34,4.92,20.7,20.7,0,0,0,18.67.06c3.46-1.63,4.83-4.78,4.89-8.54.06-3.56-2-5.69-4.9-7.23a28.7,28.7,0,0,0-6-2.2c-2.43-.66-5-1-7.23-2.18a2.91,2.91,0,0,1-1.94-2.82c.09-1.41,1.08-2.11,2.26-2.6a7.46,7.46,0,0,1,8.21,1.86,20.28,20.28,0,0,0,2.11,2.24,3.7,3.7,0,0,0,4.91,0c1.47-1.18,1.26-2.86.52-4.37a8.05,8.05,0,0,0-3.58-3.46A19.61,19.61,0,0,0,413.17,65.83Zm-33.7,33.4a19,19,0,0,0,7.4-1.39c3.4-1.46,6.1-3.66,7.12-7.41a3.61,3.61,0,0,0-2.1-4.65c-1.83-.82-3.26.05-4.32,1.59-.53.77-1,1.59-1.54,2.35A7.64,7.64,0,0,1,378.44,93a7.2,7.2,0,0,1-6.16-5.05,14.33,14.33,0,0,1,.18-11c2.29-5.37,8.63-6.44,12.66-2.22.84.88,1.53,1.89,2.28,2.84a3.59,3.59,0,0,0,6.23-3.22,9.47,9.47,0,0,0-3.44-5c-5.39-4.4-14.45-4.82-20.29-.92s-8.4,12.52-6,20.43C366,95.61,371.51,99.29,379.47,99.23Zm-52-26.55c0,1.87,0,3.55,0,5.22.15,5.14-.38,10.3.44,15.43a6.15,6.15,0,0,0,4.6,5.45,16.75,16.75,0,0,0,9.42-.23c2.3-.71,3.46-2.14,2.8-4.6-2.07-3.39-5.39.08-8.71-2.17-.54-5.89-.09-12.51-.2-19.06,2.62-.57,6.21.57,6.37-3,.19-4.15-3.76-2.79-6.43-3.47,0-2.2.08-4.43,0-6.66-.14-3.14-1.82-5-4.27-4.91s-3.81,1.79-4,4.91c-.1,2.23,0,4.47,0,6.66-2.17.57-4.71.38-4.61,3.38C323,72.34,325.16,72.42,327.47,72.68Zm-43.26,3.64q0-8.85,0-17.7c0-1.74-.23-3.39-1.91-4.4-2.9-1.75-6.07.11-6.15,3.79-.13,5.71-.05,11.43-.06,17.14,0,6.46-.05,12.93,0,19.39,0,3.55,2.16,5.35,5.1,4.56,2.32-.62,3-2.38,3-4.51C284.22,88.5,284.21,82.41,284.21,76.32Zm71.94,6.1c0-3.93,0-7.86,0-11.79,0-3-1.56-4.72-4-4.78s-4.05,1.54-4.09,4.63q-.13,12.07,0,24.14c0,3,1.67,4.73,4.09,4.66s3.95-1.78,4-4.79C356.21,90.48,356.15,86.45,356.15,82.43ZM98.71,70a4.13,4.13,0,0,0-4-4.22,4.06,4.06,0,0,0-4.34,4.09,4.19,4.19,0,0,0,3.92,4.29A4.28,4.28,0,0,0,98.71,70ZM23.05,95a4.19,4.19,0,0,0-8.37,0A4.07,4.07,0,0,0,19,99.15,4.07,4.07,0,0,0,23.05,95ZM64.53,65.83a4.23,4.23,0,0,0-4.25,4,4.38,4.38,0,0,0,4.2,4.39,4.22,4.22,0,0,0,4.18-4A4.08,4.08,0,0,0,64.53,65.83ZM23,82.42a4.34,4.34,0,0,0-4.14-4.14,4.36,4.36,0,0,0-4.22,4.35A4.18,4.18,0,0,0,23,82.42ZM433.81,57.54a7,7,0,0,0,7.06-7.14,7.1,7.1,0,0,0-14.21.11A7,7,0,0,0,433.81,57.54ZM94.48,90.87A4.07,4.07,0,0,0,90.41,95a4,4,0,0,0,4.19,4.2,4.13,4.13,0,0,0,4.13-4A4.2,4.2,0,0,0,94.48,90.87Zm-14.86,0a4.09,4.09,0,0,0-4.23,3.94,4,4,0,0,0,4,4.38A4.17,4.17,0,0,0,83.73,95,4.25,4.25,0,0,0,79.61,90.87ZM34.09,99.18a4,4,0,0,0,4.23-3.9,4.07,4.07,0,0,0-4-4.39,4.15,4.15,0,1,0-.19,8.29ZM83.73,82.42a4.33,4.33,0,0,0-4.46-4.1,4.19,4.19,0,0,0-3.88,4.32,4,4,0,0,0,4.39,4A4.16,4.16,0,0,0,83.73,82.42Zm-15.08.12a4.25,4.25,0,0,0-4-4.23,4.34,4.34,0,0,0-4.37,4.21,4.21,4.21,0,0,0,4.07,4.15A4,4,0,0,0,68.65,82.54ZM49.29,78.3a4.42,4.42,0,0,0-4.16,4.14,4.2,4.2,0,0,0,4.27,4.24,4,4,0,0,0,4.08-4.07A4.23,4.23,0,0,0,49.29,78.3ZM53.49,70a4.1,4.1,0,0,0-4.22-4.24,4.27,4.27,0,0,0-4.14,4.11,4.37,4.37,0,0,0,4.29,4.28A4.2,4.2,0,0,0,53.49,70ZM83.74,70a4.24,4.24,0,0,0-4.08-4.16A4,4,0,0,0,75.38,70a4.18,4.18,0,0,0,4,4.21A4.4,4.4,0,0,0,83.74,70Zm0-12.38a4.18,4.18,0,0,0-4.27-4.23,4,4,0,0,0-4.1,4,4.16,4.16,0,0,0,4.19,4.31A4.36,4.36,0,0,0,83.74,57.6ZM64.6,61.7a4.18,4.18,0,0,0,4-4.44,4,4,0,0,0-4.24-3.88,4.16,4.16,0,0,0-4.12,4.36A4.36,4.36,0,0,0,64.6,61.7Zm-30.51,25a4,4,0,0,0,4.24-3.9,4.22,4.22,0,0,0-4-4.47A4.37,4.37,0,0,0,30,82.56,4.19,4.19,0,0,0,34.09,86.68ZM68.64,95a4.06,4.06,0,0,0-4-4.11,4.24,4.24,0,0,0-4.33,4.19,4.17,4.17,0,0,0,4.4,4.07A4,4,0,0,0,68.64,95ZM98.73,82.45a4.34,4.34,0,0,0-4.12-4.15,4.24,4.24,0,0,0-4.2,4.3,4,4,0,0,0,4.07,4.07A4.14,4.14,0,0,0,98.73,82.45ZM79.47,36.56a4.33,4.33,0,0,0,4.27-4.29,4.38,4.38,0,0,0-4.18-4.12,4.16,4.16,0,0,0-4.17,4.31A4.1,4.1,0,0,0,79.47,36.56Zm0,12.61a4.14,4.14,0,1,0,.16-8.29,4,4,0,0,0-4.22,3.91A4.1,4.1,0,0,0,79.44,49.16ZM23.06,70a4.19,4.19,0,0,0-8.38-.11,4.33,4.33,0,0,0,4,4.27A4.25,4.25,0,0,0,23.06,70ZM49.23,90.86A4.29,4.29,0,0,0,45.13,95a4.15,4.15,0,0,0,4.32,4.14,4,4,0,0,0,4-4.08A4.12,4.12,0,0,0,49.23,90.86ZM356.13,58a3.8,3.8,0,0,0-4.08-4A4,4,0,0,0,348,58.08,3.79,3.79,0,0,0,352.13,62,3.72,3.72,0,0,0,356.13,58Z" fill="#28629c"/><path d="M10.69.56c-.59,1-1.73.85-2.61,1.24-4.37,2-6.72,5.4-7.52,10V.56Z" fill="#fcfcfc"/><path d="M126.29,89.09c1.91-6.61,3.66-12.62,5.36-18.63.71-2.52,1.83-4.58,4.84-4.6s4.24,1.89,5,4.45c1.51,5.3,3.06,10.59,4.62,15.88.2.69.1,1.53,1.12,2.12l5.28-17.89a20.83,20.83,0,0,1,.66-2.14c.85-2,2.42-2.92,4.51-2.24s3.17,2.28,2.47,4.39q-4.31,13-8.89,26a4.3,4.3,0,0,1-4.68,2.86,4.48,4.48,0,0,1-4.26-3.48c-1.68-5.44-3.31-10.9-4.94-16.36-.21-.71-.2-1.5-1-2-1.45,5.14-2.89,10.26-4.36,15.38-.33,1.16-.79,2.29-1.21,3.43a4.21,4.21,0,0,1-4.27,3A4.39,4.39,0,0,1,122,96.47c-3.32-8.54-6.09-17.27-8.88-26A3.29,3.29,0,0,1,115.52,66c2.24-.7,3.88.19,4.58,2.46,1.8,5.9,3.55,11.81,5.32,17.72C125.63,86.94,125.85,87.64,126.29,89.09Z" fill="#fcfcfc"/><path d="M208.72,94.34a22.61,22.61,0,0,1-.64,2.53,3.59,3.59,0,0,1-4,2.38,3.44,3.44,0,0,1-3.21-3,13.88,13.88,0,0,1-.13-2.52q0-17,0-34c0-.56,0-1.12,0-1.68.16-2.81,1.48-4.41,3.67-4.46s3.93,1.57,4,4.45c.12,4,0,8,0,12.43,1.39-1,2.32-1.74,3.3-2.39a13.1,13.1,0,0,1,19.37,5.59,21.53,21.53,0,0,1-.3,18c-4,8.55-14.26,10.31-21,3.73C209.6,95.09,209.31,94.86,208.72,94.34Zm15.75-11.71a13.09,13.09,0,0,0-.92-5.75c-1.16-2.81-3.12-4.68-6.26-4.82a7,7,0,0,0-6.85,4A14,14,0,0,0,210,88.48a6.94,6.94,0,0,0,6.61,4.38c3.07.09,5.12-1.49,6.53-4A11.29,11.29,0,0,0,224.47,82.62Z" fill="#fcfcfc"/><path d="M260.06,94.77c-4,3-8.18,4.93-13.11,4.45-5.43-.53-9-3.92-9.31-8.76-.29-4.66,2.85-8.27,8.21-9.45,4.45-1,9-1.68,13.29-3.13.57-4-.68-5.84-4.43-6.26s-6.91.42-8.89,3.93c-1.18,2.09-2.77,3-5.08,1.86-1.86-.95-2.18-3.16-.86-5.68,1.66-3.18,4.63-4.53,7.88-5.31a27.24,27.24,0,0,1,12.25,0,8.67,8.67,0,0,1,7.29,7.51c.71,4,.39,8,.4,12a23.38,23.38,0,0,0,1,7.74c.7,2,.68,3.95-1.54,5.07s-3.94.08-5.33-1.71Zm-.89-11.67c-3.15.73-6.32,1.37-9.44,2.21-2.8.75-4.16,2.59-3.8,4.73s2.47,3.81,5.14,3.85C256.93,94,260.31,89.6,259.17,83.1Z" fill="#fcfcfc"/><path d="M172,84.61c.12,3.6,1.12,6.35,3.9,8.05a8.14,8.14,0,0,0,9-.25,21.35,21.35,0,0,0,3.7-3c1.57-1.56,3.15-1.87,5.06-.56,1.16,2.28.25,4.21-1.35,5.78-5.45,5.35-12,5.6-18.83,3.61-5.82-1.71-9.48-6.94-9.87-13.34a36,36,0,0,1,0-5.05c.62-7.73,6-13.13,13.7-14,8.16-.87,14.74,3,16.79,10a14,14,0,0,1,.53,3.59c.08,3.37-.94,4.69-4.35,4.89-4.57.27-9.17.18-13.76.23C175.24,84.62,173.85,84.61,172,84.61Zm14.54-4.81c-.08-5.2-3.14-8.52-7.49-8.25-4.17.26-7.05,3.79-6.69,8.25Z" fill="#fcfcfc"/><path d="M413.17,65.83a19.61,19.61,0,0,1,8.92,2.11,8.05,8.05,0,0,1,3.58,3.46c.74,1.51.95,3.19-.52,4.37a3.7,3.7,0,0,1-4.91,0,20.28,20.28,0,0,1-2.11-2.24,7.46,7.46,0,0,0-8.21-1.86c-1.17.49-2.17,1.19-2.26,2.6a2.91,2.91,0,0,0,1.94,2.82c2.27,1.17,4.8,1.52,7.23,2.18a28.7,28.7,0,0,1,6,2.2c2.9,1.54,5,3.67,4.9,7.23-.06,3.75-1.43,6.91-4.89,8.54a20.7,20.7,0,0,1-18.67-.06,8.15,8.15,0,0,1-4.34-4.92c-.67-2.06-.37-3.8,1.67-4.75s3.51-.18,4.49,1.63a8.48,8.48,0,0,0,8.78,4.77,7.47,7.47,0,0,0,1.9-.41c1.56-.56,2.9-1.35,3-3.29s-1.09-2.9-2.66-3.54c-4.07-1.65-8.56-2.05-12.46-4.19-6.07-3.33-6.22-10.92-.28-14.51a12.74,12.74,0,0,1,4.14-1.66A20.8,20.8,0,0,1,413.17,65.83Z" fill="#fcfcfc"/><path d="M379.47,99.23c-8,.06-13.47-3.62-15.54-10.37-2.43-7.91.08-16.5,6-20.43s14.9-3.47,20.29.92a9.47,9.47,0,0,1,3.44,5,3.59,3.59,0,0,1-6.23,3.22c-.76-1-1.44-2-2.28-2.84-4-4.22-10.37-3.15-12.66,2.22a14.33,14.33,0,0,0-.18,11A7.2,7.2,0,0,0,378.44,93,7.64,7.64,0,0,0,386,89.73c.55-.76,1-1.58,1.54-2.35,1.06-1.54,2.49-2.41,4.32-1.59a3.61,3.61,0,0,1,2.1,4.65c-1,3.75-3.72,5.95-7.12,7.41A19,19,0,0,1,379.47,99.23Z" fill="#fcfcfc"/><path d="M327.47,72.68c-2.31-.26-4.48-.34-4.57-3.07-.1-3,2.44-2.8,4.61-3.38,0-2.19-.08-4.43,0-6.66.14-3.11,1.58-4.82,4-4.91s4.13,1.77,4.27,4.91c.1,2.22,0,4.46,0,6.66,2.68.69,6.62-.67,6.43,3.47-.16,3.59-3.75,2.46-6.37,3,.11,6.54-.33,13.17.2,19.06,3.31,2.24,6.63-1.22,8.71,2.17.66,2.46-.5,3.88-2.8,4.6a16.75,16.75,0,0,1-9.42.23,6.15,6.15,0,0,1-4.6-5.45c-.82-5.13-.29-10.29-.44-15.43C327.43,76.23,327.47,74.56,327.47,72.68Z" fill="#fcfcfc"/><path d="M284.21,76.32c0,6.09,0,12.18,0,18.27,0,2.13-.67,3.89-3,4.51-2.94.79-5.06-1-5.1-4.56-.08-6.46,0-12.93,0-19.39,0-5.71-.07-11.43.06-17.14.08-3.68,3.25-5.54,6.15-3.79,1.68,1,1.9,2.67,1.91,4.4Q284.21,67.47,284.21,76.32Z" fill="#fcfcfc"/><path d="M356.15,82.43c0,4,.06,8,0,12.07-.05,3-1.56,4.72-4,4.79s-4.06-1.63-4.09-4.66q-.11-12.07,0-24.14c0-3.09,1.61-4.7,4.09-4.63s3.95,1.8,4,4.78C356.19,74.57,356.15,78.5,356.15,82.43Z" fill="#fcfcfc"/><path d="M98.71,70a4.28,4.28,0,0,1-4.38,4.15,4.19,4.19,0,0,1-3.92-4.29,4.06,4.06,0,0,1,4.34-4.09A4.13,4.13,0,0,1,98.71,70Z" fill="#fcfcfc"/><path d="M23.05,95a4.07,4.07,0,0,1-4,4.11A4.07,4.07,0,0,1,14.68,95a4.19,4.19,0,0,1,8.37,0Z" fill="#fcfcfc"/><path d="M64.53,65.83a4.08,4.08,0,0,1,4.13,4.33,4.22,4.22,0,0,1-4.18,4,4.38,4.38,0,0,1-4.2-4.39A4.23,4.23,0,0,1,64.53,65.83Z" fill="#fcfcfc"/><path d="M23,82.42a4.18,4.18,0,0,1-8.36.21,4.36,4.36,0,0,1,4.22-4.35A4.34,4.34,0,0,1,23,82.42Z" fill="#fcfcfc"/><path d="M433.81,57.54a7,7,0,0,1-7.15-7,7.1,7.1,0,0,1,14.21-.11A7,7,0,0,1,433.81,57.54Zm0-1a6.12,6.12,0,0,0,6-6.14,6,6,0,0,0-12.07.15A6.05,6.05,0,0,0,433.84,56.51Z" fill="#fcfcfc"/><path d="M94.48,90.87a4.2,4.2,0,0,1,4.26,4.25,4.13,4.13,0,0,1-4.13,4A4,4,0,0,1,90.41,95,4.07,4.07,0,0,1,94.48,90.87Z" fill="#fcfcfc"/><path d="M79.61,90.87A4.25,4.25,0,0,1,83.73,95a4.17,4.17,0,0,1-4.3,4.19,4,4,0,0,1-4-4.38A4.09,4.09,0,0,1,79.61,90.87Z" fill="#fcfcfc"/><path d="M34.09,99.18a4.15,4.15,0,1,1,.19-8.29,4.07,4.07,0,0,1,4,4.39A4,4,0,0,1,34.09,99.18Z" fill="#fcfcfc"/><path d="M83.73,82.42a4.16,4.16,0,0,1-4,4.25,4,4,0,0,1-4.39-4,4.19,4.19,0,0,1,3.88-4.32A4.33,4.33,0,0,1,83.73,82.42Z" fill="#fcfcfc"/><path d="M68.65,82.54a4,4,0,0,1-4.3,4.13,4.21,4.21,0,0,1-4.07-4.15,4.34,4.34,0,0,1,4.37-4.21A4.25,4.25,0,0,1,68.65,82.54Z" fill="#fcfcfc"/><path d="M49.29,78.3a4.23,4.23,0,0,1,4.2,4.31,4,4,0,0,1-4.08,4.07,4.2,4.2,0,0,1-4.27-4.24A4.42,4.42,0,0,1,49.29,78.3Z" fill="#fcfcfc"/><path d="M53.49,70a4.2,4.2,0,0,1-4.07,4.14,4.37,4.37,0,0,1-4.29-4.28,4.27,4.27,0,0,1,4.14-4.11A4.1,4.1,0,0,1,53.49,70Z" fill="#fcfcfc"/><path d="M83.74,70a4.4,4.4,0,0,1-4.37,4.21,4.18,4.18,0,0,1-4-4.21,4,4,0,0,1,4.28-4.16A4.24,4.24,0,0,1,83.74,70Z" fill="#fcfcfc"/><path d="M83.74,57.6a4.36,4.36,0,0,1-4.17,4.11,4.16,4.16,0,0,1-4.19-4.31,4,4,0,0,1,4.1-4A4.18,4.18,0,0,1,83.74,57.6Z" fill="#fcfcfc"/><path d="M64.6,61.7a4.36,4.36,0,0,1-4.32-4,4.16,4.16,0,0,1,4.12-4.36,4,4,0,0,1,4.24,3.88A4.18,4.18,0,0,1,64.6,61.7Z" fill="#fcfcfc"/><path d="M34.09,86.68A4.19,4.19,0,0,1,30,82.56a4.37,4.37,0,0,1,4.32-4.25,4.22,4.22,0,0,1,4,4.47A4,4,0,0,1,34.09,86.68Z" fill="#fcfcfc"/><path d="M68.64,95a4,4,0,0,1-4,4.15,4.17,4.17,0,0,1-4.4-4.07,4.24,4.24,0,0,1,4.33-4.19A4.06,4.06,0,0,1,68.64,95Z" fill="#fcfcfc"/><path d="M98.73,82.45a4.14,4.14,0,0,1-4.25,4.23,4,4,0,0,1-4.07-4.07,4.24,4.24,0,0,1,4.2-4.3A4.34,4.34,0,0,1,98.73,82.45Z" fill="#fcfcfc"/><path d="M79.47,36.56a4.1,4.1,0,0,1-4.08-4.1,4.16,4.16,0,0,1,4.17-4.31,4.38,4.38,0,0,1,4.18,4.12A4.33,4.33,0,0,1,79.47,36.56Z" fill="#fcfcfc"/><path d="M79.44,49.16a4.1,4.1,0,0,1-4.07-4.37,4,4,0,0,1,4.22-3.91,4.14,4.14,0,1,1-.16,8.29Z" fill="#fcfcfc"/><path d="M23.06,70a4.25,4.25,0,0,1-4.38,4.15,4.33,4.33,0,0,1-4-4.27,4.19,4.19,0,0,1,8.38.11Z" fill="#fcfcfc"/><path d="M49.23,90.86a4.12,4.12,0,0,1,4.25,4.21,4,4,0,0,1-4,4.08A4.15,4.15,0,0,1,45.13,95,4.29,4.29,0,0,1,49.23,90.86Z" fill="#fcfcfc"/><path d="M356.13,58a3.72,3.72,0,0,1-4,4A3.79,3.79,0,0,1,348,58.08,4,4,0,0,1,352.06,54,3.8,3.8,0,0,1,356.13,58Z" fill="#fcfcfc"/><path d="M224.47,82.62a11.3,11.3,0,0,1-1.31,6.22c-1.42,2.52-3.46,4.11-6.53,4A6.94,6.94,0,0,1,210,88.48a14,14,0,0,1,.42-12.43,7,7,0,0,1,6.85-4c3.15.15,5.1,2,6.26,4.82A13.11,13.11,0,0,1,224.47,82.62Z" fill="#28629c"/><path d="M259.17,83.1c1.14,6.5-2.24,10.88-8.09,10.8-2.68,0-4.76-1.6-5.14-3.85s1-4,3.8-4.73C252.85,84.47,256,83.83,259.17,83.1Z" fill="#28629c"/><path d="M186.59,79.8H172.4c-.36-4.46,2.53-8,6.69-8.25C183.45,71.28,186.51,74.6,186.59,79.8Z" fill="#28629c"/><path d="M433.84,56.51a6.05,6.05,0,0,1-6.09-6,6,6,0,0,1,12.07-.15A6.12,6.12,0,0,1,433.84,56.51Zm-.88-5.3c1.78.55,1.68,3.06,3.7,3.22,0-1.49-1.23-2.18-1.54-3.51.59-1,1.58-2.18.5-3.6-1.25-.93-2.6-.56-4.09-.52,0,2.68-.35,5.16.26,8C433,53.52,432.4,52.36,433,51.21Z" fill="#28629c"/><path d="M433,51.21c-.56,1.16.07,2.31-1.17,3.63-.6-2.89-.24-5.36-.26-8,1.5,0,2.84-.41,4.1.52,1.07,1.42.09,2.58-.5,3.6.31,1.34,1.58,2,1.54,3.51C434.64,54.26,434.74,51.76,433,51.21Zm-.13-3.49a2.8,2.8,0,0,0,0,2.32c1.17.12,2-.16,2-1.56C434.43,47.61,433.7,47.64,432.82,47.72Z" fill="#fcfcfc"/><path d="M432.82,47.72c.87-.08,1.6-.11,2,.76.06,1.41-.78,1.68-2,1.56A2.8,2.8,0,0,1,432.82,47.72Z" fill="#28629c"/></svg>
